<svg width="80" height="25" viewBox="0 0 80 25" fill="none" xmlns="http://www.w3.org/2000/svg">
<mask id="mask0_32_1710" style="mask-type:alpha" maskUnits="userSpaceOnUse" x="2" y="0" width="24" height="24">
<rect width="24" height="24" transform="matrix(-1 0 0 1 26 0)" fill="#D9D9D9"/>
</mask>
<g mask="url(#mask0_32_1710)">
<path d="M20 21C20.75 21 21.4917 20.8167 22.225 20.45C22.9583 20.0833 23.55 19.6 24 19C23.5667 19 23.125 18.8292 22.675 18.4875C22.225 18.1458 22 17.65 22 17C22 16.1667 21.7083 15.4583 21.125 14.875C20.5417 14.2917 19.8333 14 19 14C18.1667 14 17.4583 14.2917 16.875 14.875C16.2917 15.4583 16 16.1667 16 17C16 18.1 16.3917 19.0417 17.175 19.825C17.9583 20.6083 18.9 21 20 21ZM20 19C19.45 19 18.9792 18.8042 18.5875 18.4125C18.1958 18.0208 18 17.55 18 17C18 16.7167 18.0958 16.4792 18.2875 16.2875C18.4792 16.0958 18.7167 16 19 16C19.2833 16 19.5208 16.0958 19.7125 16.2875C19.9042 16.4792 20 16.7167 20 17C20 17.3833 20.0458 17.7333 20.1375 18.05C20.2292 18.3667 20.35 18.6667 20.5 18.95C20.4167 18.9833 20.3333 19 20.25 19H20ZM14.25 15L17 12.25L8.05 3.3C7.86667 3.11667 7.6375 3.02083 7.3625 3.0125C7.0875 3.00417 6.85 3.1 6.65 3.3L5.3 4.65C5.1 4.85 5 5.08333 5 5.35C5 5.61667 5.1 5.85 5.3 6.05L14.25 15Z" fill="#494949"/>
</g>
<line x1="27" y1="2.5" x2="27" y2="22.5" stroke="#494949" stroke-width="2"/>
<mask id="mask1_32_1710" style="mask-type:alpha" maskUnits="userSpaceOnUse" x="29" y="0" width="24" height="24">
<rect x="29" width="24" height="24" fill="#D9D9D9"/>
</mask>
<g mask="url(#mask1_32_1710)">
<path d="M41 22C39.6333 22 38.3417 21.7375 37.125 21.2125C35.9083 20.6875 34.8458 19.9708 33.9375 19.0625C33.0292 18.1542 32.3125 17.0917 31.7875 15.875C31.2625 14.6583 31 13.3667 31 12C31 10.6167 31.2708 9.31667 31.8125 8.1C32.3542 6.88333 33.0875 5.825 34.0125 4.925C34.9375 4.025 36.0167 3.3125 37.25 2.7875C38.4833 2.2625 39.8 2 41.2 2C42.5333 2 43.7917 2.22917 44.975 2.6875C46.1583 3.14583 47.1958 3.77917 48.0875 4.5875C48.9792 5.39583 49.6875 6.35417 50.2125 7.4625C50.7375 8.57083 51 9.76667 51 11.05C51 12.9667 50.4167 14.4375 49.25 15.4625C48.0833 16.4875 46.6667 17 45 17H43.15C43 17 42.8958 17.0417 42.8375 17.125C42.7792 17.2083 42.75 17.3 42.75 17.4C42.75 17.6 42.875 17.8875 43.125 18.2625C43.375 18.6375 43.5 19.0667 43.5 19.55C43.5 20.3833 43.2708 21 42.8125 21.4C42.3542 21.8 41.75 22 41 22ZM35.5 13C35.9333 13 36.2917 12.8583 36.575 12.575C36.8583 12.2917 37 11.9333 37 11.5C37 11.0667 36.8583 10.7083 36.575 10.425C36.2917 10.1417 35.9333 10 35.5 10C35.0667 10 34.7083 10.1417 34.425 10.425C34.1417 10.7083 34 11.0667 34 11.5C34 11.9333 34.1417 12.2917 34.425 12.575C34.7083 12.8583 35.0667 13 35.5 13ZM38.5 9C38.9333 9 39.2917 8.85833 39.575 8.575C39.8583 8.29167 40 7.93333 40 7.5C40 7.06667 39.8583 6.70833 39.575 6.425C39.2917 6.14167 38.9333 6 38.5 6C38.0667 6 37.7083 6.14167 37.425 6.425C37.1417 6.70833 37 7.06667 37 7.5C37 7.93333 37.1417 8.29167 37.425 8.575C37.7083 8.85833 38.0667 9 38.5 9ZM43.5 9C43.9333 9 44.2917 8.85833 44.575 8.575C44.8583 8.29167 45 7.93333 45 7.5C45 7.06667 44.8583 6.70833 44.575 6.425C44.2917 6.14167 43.9333 6 43.5 6C43.0667 6 42.7083 6.14167 42.425 6.425C42.1417 6.70833 42 7.06667 42 7.5C42 7.93333 42.1417 8.29167 42.425 8.575C42.7083 8.85833 43.0667 9 43.5 9ZM46.5 13C46.9333 13 47.2917 12.8583 47.575 12.575C47.8583 12.2917 48 11.9333 48 11.5C48 11.0667 47.8583 10.7083 47.575 10.425C47.2917 10.1417 46.9333 10 46.5 10C46.0667 10 45.7083 10.1417 45.425 10.425C45.1417 10.7083 45 11.0667 45 11.5C45 11.9333 45.1417 12.2917 45.425 12.575C45.7083 12.8583 46.0667 13 46.5 13ZM41 20C41.15 20 41.2708 19.9583 41.3625 19.875C41.4542 19.7917 41.5 19.6833 41.5 19.55C41.5 19.3167 41.375 19.0417 41.125 18.725C40.875 18.4083 40.75 17.9333 40.75 17.3C40.75 16.6 40.9917 16.0417 41.475 15.625C41.9583 15.2083 42.55 15 43.25 15H45C46.1 15 47.0417 14.6792 47.825 14.0375C48.6083 13.3958 49 12.4 49 11.05C49 9.03333 48.2292 7.35417 46.6875 6.0125C45.1458 4.67083 43.3167 4 41.2 4C38.9333 4 37 4.775 35.4 6.325C33.8 7.875 33 9.76667 33 12C33 14.2167 33.7792 16.1042 35.3375 17.6625C36.8958 19.2208 38.7833 20 41 20Z" fill="#494949"/>
</g>
<line x1="55" y1="2.5" x2="55" y2="22.5" stroke="#494949" stroke-width="2"/>
<mask id="mask2_32_1710" style="mask-type:alpha" maskUnits="userSpaceOnUse" x="56" y="0" width="24" height="25">
<rect x="56" y="0.5" width="24" height="24" fill="#D9D9D9"/>
</mask>
<g mask="url(#mask2_32_1710)">
<path d="M61 19.5H62.425L72.2 9.725L70.775 8.3L61 18.075V19.5ZM59 21.5V17.25L72.2 4.075C72.4 3.89167 72.6208 3.75 72.8625 3.65C73.1042 3.55 73.3583 3.5 73.625 3.5C73.8917 3.5 74.15 3.55 74.4 3.65C74.65 3.75 74.8667 3.9 75.05 4.1L76.425 5.5C76.625 5.68333 76.7708 5.9 76.8625 6.15C76.9542 6.4 77 6.65 77 6.9C77 7.16667 76.9542 7.42083 76.8625 7.6625C76.7708 7.90417 76.625 8.125 76.425 8.325L63.25 21.5H59ZM71.475 9.025L70.775 8.3L72.2 9.725L71.475 9.025Z" fill="#494949"/>
</g>
</svg>
